Preview_Lexend-weight_120.00_MM.ufo
<glyph name="zero" format="2">
  <advance width="637"/>
  <unicode hex="0030"/>
  <outline>
    <contour>
      <point x="589.8" y="350.0" type="qcurve"/>
      <point x="589.8" y="182.6"/>
      <point x="445.4" y="-10.0"/>
      <point x="317.8" y="-10.0" type="qcurve"/>
      <point x="190.2" y="-10.0"/>
      <point x="46.8" y="182.6"/>
      <point x="46.8" y="350.0" type="qcurve"/>
      <point x="46.8" y="517.4"/>
      <point x="190.2" y="710.0"/>
      <point x="317.8" y="710.0" type="qcurve"/>
      <point x="445.4" y="710.0"/>
      <point x="589.8" y="517.4"/>
    </contour>
    <contour>
      <point x="170.8" y="350.0" type="qcurve"/>
      <point x="170.8" y="232.4"/>
      <point x="247.6" y="104.0"/>
      <point x="317.8" y="104.0" type="qcurve"/>
      <point x="388.0" y="104.0"/>
      <point x="464.8" y="232.4"/>
      <point x="464.8" y="350.0" type="qcurve"/>
      <point x="464.8" y="468.6"/>
      <point x="388.0" y="598.0"/>
      <point x="317.8" y="598.0" type="qcurve"/>
      <point x="247.6" y="598.0"/>
      <point x="170.8" y="468.6"/>
    </contour>
  </outline>
</glyph>
<glyph name="one" format="2">
  <advance width="521"/>
  <unicode hex="0031"/>
  <outline>
    <contour>
      <point x="344.0" y="49.0" type="line"/>
      <point x="215.0" y="49.0" type="line"/>
      <point x="215.0" y="617.0" type="line"/>
      <point x="252.0" y="569.0" type="line"/>
      <point x="109.8" y="497.0" type="line"/>
      <point x="80.8" y="611.0" type="line"/>
      <point x="272.0" y="710.0" type="line"/>
      <point x="344.0" y="710.0" type="line"/>
    </contour>
    <contour>
      <point x="464.0" y="120.0" type="line"/>
      <point x="464.0" y="0.0" type="line"/>
      <point x="98.0" y="0.0" type="line"/>
      <point x="98.0" y="120.0" type="line"/>
    </contour>
  </outline>
</glyph>
<glyph name="four" format="2">
  <advance width="620"/>
  <unicode hex="0034"/>
  <outline>
    <contour>
      <point x="456.0" y="0.0" type="line"/>
      <point x="352.0" y="0.0" type="line"/>
      <point x="352.0" y="564.0" type="line"/>
      <point x="377.0" y="558.0" type="line"/>
      <point x="147.0" y="277.0" type="line"/>
      <point x="143.0" y="289.0" type="line"/>
      <point x="578.0" y="289.0" type="line"/>
      <point x="578.0" y="190.0" type="line"/>
      <point x="76.0" y="190.0" type="line"/>
      <point x="30.0" y="280.0" type="line"/>
      <point x="373.0" y="700.0" type="line"/>
      <point x="456.0" y="700.0" type="line"/>
    </contour>
  </outline>
</glyph>
<glyph name="nine" format="2">
  <advance width="551"/>
  <unicode hex="0039"/>
  <outline>
    <contour>
      <point x="30.0" y="462.0" type="qcurve" smooth="yes"/>
      <point x="30.0" y="569.0"/>
      <point x="170.0" y="712.0"/>
      <point x="274.0" y="712.0" type="qcurve"/>
      <point x="374.0" y="712.0"/>
      <point x="516.0" y="575.0"/>
      <point x="516.0" y="478.0" type="qcurve" smooth="yes"/>
      <point x="516.0" y="428.0"/>
      <point x="473.0" y="293.0"/>
      <point x="417.0" y="174.0" type="qcurve"/>
      <point x="334.0" y="0.0" type="line"/>
      <point x="228.0" y="0.0" type="line"/>
      <point x="224.0" y="10.0" type="line"/>
      <point x="432.0" y="452.0" type="line"/>
      <point x="435.0" y="369.0" type="line"/>
      <point x="400.0" y="310.0"/>
      <point x="297.0" y="243.0"/>
      <point x="241.0" y="243.0" type="qcurve"/>
      <point x="155.0" y="243.0"/>
      <point x="30.0" y="373.0"/>
    </contour>
    <contour>
      <point x="400.0" y="474.0" type="qcurve" smooth="yes"/>
      <point x="400.0" y="533.0"/>
      <point x="325.0" y="612.0"/>
      <point x="266.0" y="612.0" type="qcurve"/>
      <point x="212.0" y="612.0"/>
      <point x="141.0" y="536.0"/>
      <point x="141.0" y="475.0" type="qcurve" smooth="yes"/>
      <point x="141.0" y="423.0"/>
      <point x="213.0" y="343.0"/>
      <point x="264.0" y="343.0" type="qcurve" smooth="yes"/>
      <point x="323.0" y="343.0"/>
      <point x="400.0" y="419.0"/>
    </contour>
  </outline>
</glyph>
<glyph name="A" format="2">
  <advance width="698"/>
  <unicode hex="0041"/>
  <note>
A
</note>
  <anchor x="351.0" y="0" name="bottom"/>
  <anchor x="608.0" y="10.0" name="ogonek"/>
  <anchor x="351.0" y="700.0" name="top"/>
  <outline>
    <contour>
      <point x="335.0" y="588.8" type="qcurve"/>
      <point x="360.2" y="589.6" type="line"/>
      <point x="348.27171426971483" y="550.5698570975254"/>
      <point x="310.2880181535164" y="432.52004538379094"/>
      <point x="295.6" y="395.6" type="qcurve"/>
      <point x="146.0" y="0.0" type="line"/>
      <point x="16.0" y="0.0" type="line"/>
      <point x="289.0" y="700.0" type="line"/>
      <point x="411.0" y="700.0" type="line"/>
      <point x="682.0" y="0.0" type="line"/>
      <point x="547.2" y="0.0" type="line"/>
      <point x="396.8" y="398.8" type="line" smooth="yes"/>
      <point x="383.92322649785615" y="434.6508582560742"/>
      <point x="347.1223614619017" y="549.5373879066753"/>
    </contour>
    <contour>
      <point x="525.0" y="160.0" type="line"/>
      <point x="168.0" y="160.0" type="line"/>
      <point x="211.0" y="272.6" type="line"/>
      <point x="502.0" y="272.6" type="line"/>
    </contour>
  </outline>
</glyph>
<glyph name="B" format="2">
  <advance width="685"/>
  <unicode hex="0042"/>
  <note>
B
</note>
  <anchor x="351.4" y="0" name="bottom"/>
  <anchor x="351.4" y="700.0" name="top"/>
  <outline>
    <contour>
      <point x="94.4" y="700.0" type="line"/>
      <point x="392.4" y="700.0" type="line"/>
      <point x="493.4" y="700.0"/>
      <point x="604.4" y="610.0"/>
      <point x="604.4" y="524.0" type="qcurve"/>
      <point x="604.4" y="452.0"/>
      <point x="507.4" y="364.0"/>
      <point x="421.4" y="363.0" type="qcurve"/>
      <point x="422.4" y="399.0" type="line"/>
      <point x="517.4" y="399.0"/>
      <point x="641.4" y="296.0"/>
      <point x="641.4" y="206.0" type="qcurve"/>
      <point x="641.4" y="106.0"/>
      <point x="512.4" y="0.0"/>
      <point x="402.4" y="0.0" type="qcurve"/>
      <point x="94.4" y="0.0" type="line"/>
    </contour>
    <contour>
      <point x="476.4" y="498.0" type="qcurve"/>
      <point x="476.4" y="538.6"/>
      <point x="423.6" y="582.8"/>
      <point x="374.4" y="582.8" type="qcurve"/>
      <point x="198.4" y="582.8" type="line"/>
      <point x="220.8" y="621.0" type="line"/>
      <point x="220.8" y="399.0" type="line"/>
      <point x="199.4" y="413.2" type="line"/>
      <point x="386.4" y="413.2" type="line"/>
      <point x="425.6" y="414.0"/>
      <point x="476.4" y="460.2"/>
    </contour>
    <contour>
      <point x="511.4" y="211.6" type="qcurve"/>
      <point x="511.4" y="254.6"/>
      <point x="446.4" y="301.2"/>
      <point x="391.4" y="301.2" type="qcurve"/>
      <point x="203.4" y="301.2" type="line"/>
      <point x="220.8" y="324.0" type="line"/>
      <point x="220.8" y="84.0" type="line"/>
      <point x="202.4" y="117.2" type="line"/>
      <point x="396.4" y="117.2" type="line"/>
      <point x="450.8" y="117.2"/>
      <point x="511.4" y="166.6"/>
    </contour>
  </outline>
</glyph>
<glyph name="C" format="2">
  <advance width="684"/>
  <unicode hex="0043"/>
  <note>
C
</note>
  <anchor x="381.4" y="0" name="bottom"/>
  <anchor x="376.4" y="700.0" name="top"/>
  <outline>
    <contour>
      <point x="578.6" y="187.0" type="qcurve"/>
      <point x="640.6" y="86.2" type="line"/>
      <point x="604.8" y="45.0"/>
      <point x="463.4" y="-10.0"/>
      <point x="388.4" y="-10.0" type="qcurve" smooth="yes"/>
      <point x="235.6" y="-10.0"/>
      <point x="46.4" y="192.0"/>
      <point x="46.4" y="351.0" type="qcurve" smooth="yes"/>
      <point x="46.4" y="502.8"/>
      <point x="249.2" y="708.8"/>
      <point x="396.8" y="708.8" type="qcurve" smooth="yes"/>
      <point x="472.2" y="708.8"/>
      <point x="611.2" y="644.0"/>
      <point x="651.2" y="590.8" type="qcurve"/>
      <point x="568.8" y="504.8" type="line"/>
      <point x="529.0" y="545.0"/>
      <point x="442.4" y="585.6"/>
      <point x="396.4" y="585.6" type="qcurve" smooth="yes"/>
      <point x="304.4" y="585.6"/>
      <point x="178.8" y="453.2"/>
      <point x="178.8" y="351.0" type="qcurve" smooth="yes"/>
      <point x="178.8" y="243.2"/>
      <point x="305.6" y="114.0"/>
      <point x="407.2" y="114.0" type="qcurve" smooth="yes"/>
      <point x="456.2" y="114.0"/>
      <point x="546.6" y="153.4"/>
    </contour>
  </outline>
</glyph>
<glyph name="D" format="2">
  <advance width="756"/>
  <unicode hex="0044"/>
  <note>
D
</note>
  <anchor x="338.2" y="0" name="bottom"/>
  <anchor x="150.2" y="350.0" name="center"/>
  <anchor x="328.2" y="700.0" name="top"/>
  <outline>
    <contour>
      <point x="94.4" y="700.0" type="line"/>
      <point x="375.2" y="700.0" type="line" smooth="yes"/>
      <point x="526.8" y="700.0"/>
      <point x="710.0" y="505.4"/>
      <point x="710.0" y="350.0" type="qcurve" smooth="yes"/>
      <point x="710.0" y="193.8"/>
      <point x="527.6" y="0.0"/>
      <point x="375.2" y="0.0" type="qcurve"/>
      <point x="94.4" y="0.0" type="line"/>
    </contour>
    <contour>
      <point x="206.2" y="120.0" type="line"/>
      <point x="370.2" y="120.0" type="line" smooth="yes"/>
      <point x="468.0" y="120.0"/>
      <point x="578.4" y="243.6"/>
      <point x="578.4" y="350.0" type="qcurve" smooth="yes"/>
      <point x="578.4" y="455.6"/>
      <point x="467.2" y="580.0"/>
      <point x="370.2" y="580.0" type="qcurve"/>
      <point x="203.2" y="580.0" type="line"/>
      <point x="224.0" y="605.0" type="line"/>
      <point x="224.0" y="93.0" type="line"/>
    </contour>
  </outline>
</glyph>
<glyph name="E" format="2">
  <advance width="625"/>
  <unicode hex="0045"/>
  <note>
E
</note>
  <anchor x="324.4" y="0" name="bottom"/>
  <anchor x="477.4" y="10.0" name="ogonek"/>
  <anchor x="319.4" y="700.0" name="top"/>
  <anchor x="48.4" y="700.0" name="topleft"/>
  <outline>
    <contour>
      <point x="222.2" y="0.0" type="line"/>
      <point x="94.4" y="0.0" type="line"/>
      <point x="94.4" y="700.0" type="line"/>
      <point x="222.2" y="700.0" type="line"/>
    </contour>
    <contour>
      <point x="555.4" y="0.0" type="line"/>
      <point x="154.2" y="0.0" type="line"/>
      <point x="154.2" y="118.2" type="line"/>
      <point x="555.4" y="118.2" type="line"/>
    </contour>
    <contour>
      <point x="500.4" y="300.0" type="line"/>
      <point x="154.2" y="300.0" type="line"/>
      <point x="154.2" y="416.0" type="line"/>
      <point x="500.4" y="416.0" type="line"/>
    </contour>
    <contour>
      <point x="551.8" y="581.8" type="line"/>
      <point x="154.2" y="581.8" type="line"/>
      <point x="154.2" y="700.0" type="line"/>
      <point x="551.8" y="700.0" type="line"/>
    </contour>
  </outline>
</glyph>
<glyph name="F" format="2">
  <advance width="608"/>
  <unicode hex="0046"/>
  <note>
F
</note>
  <outline>
    <contour>
      <point x="94.4" y="0.0" type="line"/>
      <point x="94.4" y="700.0" type="line"/>
      <point x="224.0" y="700.0" type="line"/>
      <point x="224.0" y="0.0" type="line"/>
    </contour>
    <contour>
      <point x="514.8" y="287.6" type="line"/>
      <point x="153.4" y="287.6" type="line"/>
      <point x="153.4" y="404.8" type="line"/>
      <point x="514.8" y="404.8" type="line"/>
    </contour>
    <contour>
      <point x="558.2" y="580.0" type="line"/>
      <point x="153.4" y="580.0" type="line"/>
      <point x="153.4" y="700.0" type="line"/>
      <point x="558.2" y="700.0" type="line"/>
    </contour>
  </outline>
</glyph>
<glyph name="G" format="2">
  <advance width="770"/>
  <unicode hex="0047"/>
  <note>
G
</note>
  <anchor x="413.0" y="0" name="bottom"/>
  <anchor x="400.0" y="700.0" name="top"/>
  <outline>
    <contour>
      <point x="46.4" y="351.0" type="qcurve"/>
      <point x="46.4" y="503.6"/>
      <point x="256.4" y="708.8"/>
      <point x="414.0" y="708.8" type="qcurve" smooth="yes"/>
      <point x="493.4" y="708.8"/>
      <point x="638.0" y="645.4"/>
      <point x="677.0" y="594.8" type="qcurve"/>
      <point x="599.8" y="505.8" type="line"/>
      <point x="558.2" y="545.2"/>
      <point x="462.4" y="588.0"/>
      <point x="413.4" y="588.0" type="qcurve" smooth="yes"/>
      <point x="313.6" y="588.0"/>
      <point x="178.8" y="452.4"/>
      <point x="178.8" y="351.0" type="qcurve"/>
      <point x="178.8" y="251.2"/>
      <point x="319.2" y="110.8"/>
      <point x="418.4" y="110.8" type="qcurve" smooth="yes"/>
      <point x="491.8" y="110.8"/>
      <point x="596.4" y="193.8"/>
      <point x="596.4" y="253.8" type="qcurve" smooth="yes"/>
      <point x="596.4" y="275.6" type="line"/>
      <point x="624.0" y="254.8" type="line"/>
      <point x="407.2" y="254.8" type="line"/>
      <point x="407.2" y="370.8" type="line"/>
      <point x="724.0" y="370.8" type="line"/>
      <point x="726.8" y="353.8"/>
      <point x="729.0" y="313.0"/>
      <point x="729.0" y="299.0" type="qcurve" smooth="yes"/>
      <point x="729.0" y="161.75714709920368"/>
      <point x="546.1218249125941" y="-10.0"/>
      <point x="411.6" y="-10.0" type="qcurve"/>
      <point x="253.2" y="-10.0"/>
      <point x="46.4" y="197.6"/>
    </contour>
  </outline>
</glyph>
<glyph name="H" format="2">
  <advance width="767"/>
  <unicode hex="0048"/>
  <note>
H
</note>
  <anchor x="379.2" y="0" name="bottom"/>
  <anchor x="379.2" y="350.0" name="center"/>
  <anchor x="379.2" y="700.0" name="top"/>
  <anchor x="39.2" y="700.0" name="topleft"/>
  <outline>
    <contour>
      <point x="94.4" y="700.0" type="line"/>
      <point x="224.0" y="700.0" type="line"/>
      <point x="224.0" y="0.0" type="line"/>
      <point x="94.4" y="0.0" type="line"/>
    </contour>
    <contour>
      <point x="543.4" y="700.0" type="line"/>
      <point x="673.0" y="700.0" type="line"/>
      <point x="673.0" y="0.0" type="line"/>
      <point x="543.4" y="0.0" type="line"/>
    </contour>
    <contour>
      <point x="148.2" y="288.6" type="line"/>
      <point x="148.4" y="409.4" type="line"/>
      <point x="606.2" y="409.4" type="line"/>
      <point x="606.2" y="288.6" type="line"/>
    </contour>
  </outline>
</glyph>
<glyph name="I" format="2">
  <advance width="503"/>
  <unicode hex="0049"/>
  <note>
I
</note>
  <anchor x="239.6" y="0" name="bottom"/>
  <anchor x="429.6" y="10.0" name="ogonek"/>
  <anchor x="239.6" y="700.0" name="top"/>
  <anchor x="124.6" y="700.0" name="topleft"/>
  <outline>
    <contour>
      <point x="316.2" y="700.0" type="qcurve"/>
      <point x="316.2" y="0.0" type="line"/>
      <point x="186.6" y="0.0" type="line"/>
      <point x="186.6" y="700.0" type="line"/>
      <point x="213.6" y="700.0"/>
      <point x="289.2" y="700.0"/>
    </contour>
    <contour>
      <point x="429.2" y="700.0" type="line"/>
      <point x="429.2" y="585.0" type="line"/>
      <point x="73.6" y="585.0" type="line"/>
      <point x="73.6" y="700.0" type="line"/>
    </contour>
    <contour>
      <point x="429.2" y="115.0" type="line"/>
      <point x="429.2" y="0.0" type="line"/>
      <point x="73.6" y="0.0" type="line"/>
      <point x="73.6" y="115.0" type="line"/>
    </contour>
  </outline>
</glyph>
<glyph name="J" format="2">
  <advance width="658"/>
  <unicode hex="004A"/>
  <note>
J
</note>
  <anchor x="314.0" y="0" name="bottom"/>
  <anchor x="461.0" y="700.0" name="top"/>
  <outline>
    <contour>
      <point x="260.0" y="-10.0" type="qcurve"/>
      <point x="190.6" y="-10.0"/>
      <point x="76.8" y="60.4"/>
      <point x="48.0" y="117.0" type="qcurve"/>
      <point x="128.0" y="200.2" type="line"/>
      <point x="167.6" y="145.8"/>
      <point x="225.0" y="110.8"/>
      <point x="259.8" y="110.8" type="qcurve" smooth="yes"/>
      <point x="307.8" y="110.8"/>
      <point x="366.0" y="176.0"/>
      <point x="366.0" y="225.6" type="qcurve"/>
      <point x="366.0" y="700.0" type="line"/>
      <point x="494.0" y="700.0" type="line"/>
      <point x="494.0" y="213.0" type="line"/>
      <point x="494.0" y="115.6"/>
      <point x="365.6" y="-10.0"/>
    </contour>
    <contour>
      <point x="602.0" y="700.0" type="line"/>
      <point x="602.0" y="583.2" type="line"/>
      <point x="233.8" y="583.2" type="line"/>
      <point x="233.8" y="700.0" type="line"/>
    </contour>
  </outline>
</glyph>
<glyph name="K" format="2">
  <advance width="734"/>
  <unicode hex="004B"/>
  <note>
K
</note>
  <anchor x="338.4" y="0" name="bottom"/>
  <anchor x="350.4" y="700.0" name="top"/>
  <outline>
    <contour>
      <point x="94.4" y="0.0" type="line"/>
      <point x="94.4" y="700.0" type="line"/>
      <point x="224.0" y="700.0" type="line"/>
      <point x="224.0" y="0.0" type="line"/>
    </contour>
    <contour>
      <point x="207.2" y="210.0" type="line"/>
      <point x="181.4" y="337.0" type="line"/>
      <point x="540.4" y="700.0" type="line"/>
      <point x="704.2" y="700.0" type="line"/>
    </contour>
    <contour>
      <point x="553.4" y="0.0" type="line"/>
      <point x="293.0" y="362.6" type="line"/>
      <point x="390.0" y="441.6" type="line"/>
      <point x="710.4" y="0.0" type="line"/>
    </contour>
  </outline>
</glyph>
<glyph name="L" format="2">
  <advance width="602"/>
  <unicode hex="004C"/>
  <note>
L
</note>
  <anchor x="300.4" y="0" name="bottom"/>
  <anchor x="293.4" y="350.0" name="center"/>
  <anchor x="143.4" y="700.0" name="top"/>
  <anchor x="549.4" y="700.0" name="topright"/>
  <outline>
    <contour>
      <point x="180.4" y="120.0" type="line"/>
      <point x="546.4" y="120.0" type="line"/>
      <point x="546.4" y="0.0" type="line"/>
      <point x="94.4" y="0.0" type="line"/>
      <point x="94.4" y="700.0" type="line"/>
      <point x="224.0" y="700.0" type="line"/>
      <point x="224.0" y="78.0" type="line"/>
    </contour>
  </outline>
</glyph>
<glyph name="M" format="2">
  <advance width="867"/>
  <unicode hex="004D"/>
  <note>
M
</note>
  <anchor x="435.4" y="0" name="bottom"/>
  <anchor x="435.4" y="700.0" name="top"/>
  <outline>
    <contour>
      <point x="94.4" y="700.0" type="line"/>
      <point x="216.4" y="700.0" type="line"/>
      <point x="471.4" y="285.0" type="line"/>
      <point x="400.4" y="286.0" type="line"/>
      <point x="658.4" y="700.0" type="line"/>
      <point x="774.4" y="700.0" type="line"/>
      <point x="774.4" y="0.0" type="line"/>
      <point x="646.4" y="0.0" type="line"/>
      <point x="646.4" y="263.0" type="line" smooth="yes"/>
      <point x="646.4" y="353.0"/>
      <point x="655.4" y="497.0"/>
      <point x="666.4" y="568.0" type="qcurve"/>
      <point x="682.4" y="525.8" type="line"/>
      <point x="465.4" y="190.2" type="line"/>
      <point x="399.4" y="190.2" type="line"/>
      <point x="188.6" y="522.6" type="line"/>
      <point x="202.4" y="568.0" type="line"/>
      <point x="213.4" y="501.0"/>
      <point x="222.4" y="360.0"/>
      <point x="222.4" y="263.0" type="qcurve"/>
      <point x="222.4" y="0.0" type="line"/>
      <point x="195.4" y="0.0"/>
      <point x="121.4" y="0.0"/>
      <point x="94.4" y="0.0" type="qcurve"/>
    </contour>
  </outline>
</glyph>
<glyph name="N" format="2">
  <advance width="794"/>
  <unicode hex="004E"/>
  <note>
N
</note>
  <anchor x="393.4" y="0" name="bottom"/>
  <anchor x="393.4" y="700.0" name="top"/>
  <outline>
    <contour>
      <point x="573.4" y="490.0" type="qcurve"/>
      <point x="573.4" y="700.0" type="line"/>
      <point x="600.4" y="700.0"/>
      <point x="674.4" y="700.0"/>
      <point x="701.4" y="700.0" type="qcurve"/>
      <point x="701.4" y="0.0" type="line"/>
      <point x="583.2" y="0.0" type="line"/>
      <point x="175.4" y="539.6" type="line"/>
      <point x="200.4" y="546.0" type="line"/>
      <point x="207.2549420631363" y="476.36816627393256"/>
      <point x="220.4" y="325.60201516496693"/>
      <point x="220.4" y="271.0" type="qcurve"/>
      <point x="220.4" y="0.0" type="line"/>
      <point x="92.4" y="0.0" type="line"/>
      <point x="92.4" y="700.0" type="line"/>
      <point x="208.6" y="700.0" type="line"/>
      <point x="615.4" y="152.6" type="line"/>
      <point x="593.4" y="148.2" type="line"/>
      <point x="583.0" y="217.8"/>
      <point x="573.2" y="382.0"/>
    </contour>
  </outline>
</glyph>
<glyph name="O" format="2">
  <advance width="792"/>
  <unicode hex="004F"/>
  <note>
O
</note>
  <anchor x="391.2" y="0" name="bottom"/>
  <anchor x="391.2" y="350.0" name="center"/>
  <anchor x="695.2" y="10.0" name="ogonek"/>
  <anchor x="391.2" y="700.0" name="top"/>
  <anchor x="30.2" y="700.0" name="topleft"/>
  <anchor x="392.2" y="706.0" name="topright"/>
  <outline>
    <contour>
      <point x="396.2" y="712.0" type="qcurve"/>
      <point x="547.6" y="712.0"/>
      <point x="746.0" y="506.0"/>
      <point x="746.0" y="351.0" type="qcurve"/>
      <point x="746.0" y="196.0"/>
      <point x="547.6" y="-10.0"/>
      <point x="396.2" y="-10.0" type="qcurve"/>
      <point x="244.8" y="-10.0"/>
      <point x="46.4" y="195.2"/>
      <point x="46.4" y="351.0" type="qcurve"/>
      <point x="46.4" y="506.8"/>
      <point x="244.8" y="712.0"/>
    </contour>
    <contour>
      <point x="396.2" y="110.8" type="qcurve" smooth="yes"/>
      <point x="490.8" y="110.8"/>
      <point x="614.4" y="247.2"/>
      <point x="614.4" y="351.0" type="qcurve"/>
      <point x="614.4" y="454.8"/>
      <point x="490.8" y="591.2"/>
      <point x="396.2" y="591.2" type="qcurve" smooth="yes"/>
      <point x="300.8" y="591.2"/>
      <point x="178.0" y="455.6"/>
      <point x="178.0" y="351.0" type="qcurve"/>
      <point x="178.0" y="246.4"/>
      <point x="300.8" y="110.8"/>
    </contour>
  </outline>
</glyph>
<glyph name="P" format="2">
  <advance width="642"/>
  <unicode hex="0050"/>
  <note>
P
</note>
  <anchor x="321.4" y="0" name="bottom"/>
  <anchor x="321.4" y="700.0" name="top"/>
  <outline>
    <contour>
      <point x="92.4" y="700.0" type="line"/>
      <point x="383.4" y="700.0" type="line" smooth="yes"/>
      <point x="473.0" y="700.0"/>
      <point x="597.8" y="573.0"/>
      <point x="597.8" y="480.0" type="qcurve" smooth="yes"/>
      <point x="597.8" y="386.0"/>
      <point x="473.0" y="256.0"/>
      <point x="383.4" y="256.0" type="qcurve"/>
      <point x="198.4" y="256.0" type="line"/>
      <point x="222.0" y="282.0" type="line"/>
      <point x="222.0" y="0.0" type="line"/>
      <point x="92.4" y="0.0" type="line"/>
    </contour>
    <contour>
      <point x="197.4" y="376.0" type="line"/>
      <point x="377.4" y="376.0" type="line" smooth="yes"/>
      <point x="413.6" y="376.0"/>
      <point x="465.4" y="436.8"/>
      <point x="465.4" y="479.2" type="qcurve" smooth="yes"/>
      <point x="465.4" y="521.2"/>
      <point x="413.6" y="580.0"/>
      <point x="377.4" y="580.0" type="qcurve"/>
      <point x="197.4" y="580.0" type="line"/>
      <point x="221.2" y="611.0" type="line"/>
      <point x="221.2" y="358.0" type="line"/>
    </contour>
  </outline>
</glyph>
<glyph name="Q" format="2">
  <advance width="792"/>
  <unicode hex="0051"/>
  <note>
Q
</note>
  <anchor x="387.0" y="0" name="bottom"/>
  <anchor x="387.0" y="700.0" name="top"/>
  <outline>
    <contour>
      <point x="396.2" y="712.0" type="qcurve"/>
      <point x="547.6" y="712.0"/>
      <point x="746.0" y="506.0"/>
      <point x="746.0" y="351.0" type="qcurve"/>
      <point x="746.0" y="196.0"/>
      <point x="547.6" y="-10.0"/>
      <point x="396.2" y="-10.0" type="qcurve"/>
      <point x="244.8" y="-10.0"/>
      <point x="46.4" y="195.2"/>
      <point x="46.4" y="351.0" type="qcurve"/>
      <point x="46.4" y="506.8"/>
      <point x="244.8" y="712.0"/>
    </contour>
    <contour>
      <point x="396.2" y="108.8" type="qcurve" smooth="yes"/>
      <point x="491.8" y="108.8"/>
      <point x="616.4" y="246.4"/>
      <point x="616.4" y="351.0" type="qcurve"/>
      <point x="616.4" y="454.8"/>
      <point x="491.8" y="591.2"/>
      <point x="396.2" y="591.2" type="qcurve" smooth="yes"/>
      <point x="299.8" y="591.2"/>
      <point x="176.0" y="455.6"/>
      <point x="176.0" y="351.0" type="qcurve"/>
      <point x="176.0" y="245.6"/>
      <point x="299.8" y="108.8"/>
    </contour>
    <contour>
      <point x="446.2" y="311.2" type="line"/>
      <point x="712.2" y="-38.2" type="line"/>
      <point x="613.8" y="-110.0" type="line"/>
      <point x="344.8" y="242.4" type="line"/>
    </contour>
  </outline>
</glyph>
<glyph name="R" format="2">
  <advance width="695"/>
  <unicode hex="0052"/>
  <note>
R
</note>
  <anchor x="365.4" y="0" name="bottom"/>
  <anchor x="325.4" y="700.0" name="top"/>
  <outline>
    <contour>
      <point x="623.4" y="477.0" type="qcurve"/>
      <point x="623.4" y="386.4"/>
      <point x="491.2" y="256.0"/>
      <point x="396.4" y="256.0" type="qcurve"/>
      <point x="193.4" y="256.0" type="line"/>
      <point x="193.4" y="371.2" type="line"/>
      <point x="400.4" y="371.2" type="line"/>
      <point x="441.4" y="371.2"/>
      <point x="493.4" y="430.0"/>
      <point x="493.4" y="474.8" type="qcurve"/>
      <point x="493.4" y="523.0"/>
      <point x="427.8" y="582.8"/>
      <point x="376.4" y="582.8" type="qcurve"/>
      <point x="196.4" y="582.8" type="line"/>
      <point x="219.2" y="630.0" type="line"/>
      <point x="219.2" y="0.0" type="line"/>
      <point x="92.4" y="0.0" type="line"/>
      <point x="92.4" y="700.0" type="line"/>
      <point x="396.4" y="700.0" type="line"/>
      <point x="490.4" y="700.0"/>
      <point x="623.4" y="572.4"/>
    </contour>
    <contour>
      <point x="320.6" y="316.0" type="line"/>
      <point x="453.6" y="341.0" type="line"/>
      <point x="651.6" y="-1.0" type="line"/>
      <point x="498.6" y="0.0" type="line"/>
    </contour>
  </outline>
</glyph>
<glyph name="S" format="2">
  <advance width="632"/>
  <unicode hex="0053"/>
  <note>
S
</note>
  <anchor x="322.4" y="0" name="bottom"/>
  <anchor x="322.4" y="700.0" name="top"/>
  <outline>
    <contour>
      <point x="47.4" y="127.4" type="qcurve"/>
      <point x="127.2" y="219.6" type="line"/>
      <point x="174.6" y="151.8"/>
      <point x="266.8" y="98.6"/>
      <point x="324.6" y="98.6" type="qcurve" smooth="yes"/>
      <point x="376.2" y="98.6"/>
      <point x="447.2" y="145.2"/>
      <point x="447.2" y="182.8" type="qcurve" smooth="yes"/>
      <point x="447.2" y="224.8"/>
      <point x="376.2" y="278.4"/>
      <point x="299.2" y="293.0" type="qcurve" smooth="yes"/>
      <point x="188.0" y="314.6"/>
      <point x="80.8" y="422.8"/>
      <point x="80.8" y="511.2" type="qcurve"/>
      <point x="80.8" y="598.4"/>
      <point x="223.2" y="712.0"/>
      <point x="328.8" y="712.0" type="qcurve"/>
      <point x="411.4" y="712.0"/>
      <point x="534.6" y="649.4"/>
      <point x="569.4" y="590.0" type="qcurve"/>
      <point x="485.2" y="507.0" type="line"/>
      <point x="455.0" y="555.0"/>
      <point x="374.4" y="606.0"/>
      <point x="326.4" y="606.0" type="qcurve"/>
      <point x="274.6" y="606.0"/>
      <point x="210.0" y="558.0"/>
      <point x="210.0" y="518.4" type="qcurve"/>
      <point x="210.0" y="479.4"/>
      <point x="269.6" y="431.2"/>
      <point x="340.0" y="417.0" type="qcurve" smooth="yes"/>
      <point x="454.8" y="393.8"/>
      <point x="576.4" y="287.8"/>
      <point x="576.4" y="212.8" type="qcurve" smooth="yes"/>
      <point x="576.4" y="108.0"/>
      <point x="434.6" y="-10.0"/>
      <point x="315.4" y="-10.0" type="qcurve" smooth="yes"/>
      <point x="228.8" y="-10.0"/>
      <point x="94.6" y="59.2"/>
    </contour>
  </outline>
</glyph>
<glyph name="T" format="2">
  <advance width="604"/>
  <unicode hex="0054"/>
  <note>
T
</note>
  <anchor x="287.0" y="0" name="bottom"/>
  <anchor x="287.0" y="350.0" name="center"/>
  <anchor x="287.0" y="700.0" name="top"/>
  <outline>
    <contour>
      <point x="363.6" y="0.0" type="line"/>
      <point x="234.0" y="0.0" type="line"/>
      <point x="234.0" y="651.0" type="line"/>
      <point x="363.6" y="651.0" type="line"/>
    </contour>
    <contour>
      <point x="569.6" y="580.0" type="line"/>
      <point x="34.0" y="580.0" type="line"/>
      <point x="34.0" y="700.0" type="line"/>
      <point x="569.6" y="700.0" type="line"/>
    </contour>
  </outline>
</glyph>
<glyph name="U" format="2">
  <advance width="747"/>
  <unicode hex="0055"/>
  <note>
U
</note>
  <anchor x="374.4" y="0" name="bottom"/>
  <anchor x="657.4" y="10.0" name="ogonek"/>
  <anchor x="374.4" y="700.0" name="top"/>
  <anchor x="516.4" y="708.0" name="topright"/>
  <outline>
    <contour>
      <point x="537.4" y="701.0" type="line"/>
      <point x="662.4" y="701.0" type="line"/>
      <point x="662.4" y="269.0" type="line"/>
      <point x="662.4" y="149.8"/>
      <point x="499.2" y="-6.0"/>
      <point x="374.4" y="-6.0" type="qcurve"/>
      <point x="249.6" y="-6.0"/>
      <point x="86.4" y="149.8"/>
      <point x="86.4" y="269.0" type="qcurve"/>
      <point x="86.4" y="701.0" type="line"/>
      <point x="216.4" y="701.0" type="line"/>
      <point x="216.4" y="278.0" type="line"/>
      <point x="216.4" y="208.4"/>
      <point x="309.4" y="114.0"/>
      <point x="374.4" y="114.0" type="qcurve"/>
      <point x="443.0" y="114.0"/>
      <point x="537.4" y="208.4"/>
      <point x="537.4" y="278.0" type="qcurve"/>
    </contour>
  </outline>
</glyph>
<glyph name="V" format="2">
  <advance width="714"/>
  <unicode hex="0056"/>
  <note>
V
</note>
  <anchor x="358.0" y="0" name="bottom"/>
  <anchor x="358.0" y="700.0" name="top"/>
  <outline>
    <contour>
      <point x="297.0" y="0.0" type="line"/>
      <point x="17.2" y="700.0" type="line"/>
      <point x="158.8" y="700.0" type="line"/>
      <point x="314.8" y="298.8" type="line"/>
      <point x="338.6" y="236.8"/>
      <point x="365.0" y="160.6"/>
      <point x="376.6" y="120.0" type="qcurve"/>
      <point x="348.8" y="119.2" type="line"/>
      <point x="359.8" y="160.6"/>
      <point x="385.6" y="239.2"/>
      <point x="407.8" y="298.8" type="qcurve"/>
      <point x="554.2" y="700.0" type="line"/>
      <point x="696.8" y="700.0" type="line"/>
      <point x="415.0" y="0.0" type="line"/>
    </contour>
  </outline>
</glyph>
<glyph name="W" format="2">
  <advance width="995"/>
  <unicode hex="0057"/>
  <note>
W
</note>
  <anchor x="488.0" y="0" name="bottom"/>
  <anchor x="488.0" y="700.0" name="top"/>
  <outline>
    <contour>
      <point x="241.4" y="0.0" type="line"/>
      <point x="17.2" y="700.0" type="line"/>
      <point x="152.4" y="700.0" type="line"/>
      <point x="276.8" y="286.4" type="line" smooth="yes"/>
      <point x="288.50311832637965" y="248.4906450208612"/>
      <point x="306.3260722118192" y="155.1326750468133"/>
      <point x="311.4" y="126.0" type="qcurve"/>
      <point x="281.2" y="126.8" type="line"/>
      <point x="288.3782348041937" y="157.99411601397907"/>
      <point x="311.7712375491371" y="249.7260394120668"/>
      <point x="325.8" y="287.2" type="qcurve"/>
      <point x="444.0" y="589.4" type="line"/>
      <point x="554.6" y="589.4" type="line"/>
      <point x="669.6" y="287.2" type="line" smooth="yes"/>
      <point x="681.0" y="257.6"/>
      <point x="694.0" y="210.6"/>
      <point x="712.2" y="134.0" type="qcurve"/>
      <point x="684.4" y="128.4" type="line"/>
      <point x="698.8" y="209.0"/>
      <point x="711.4" y="257.2"/>
      <point x="720.2" y="288.8" type="qcurve"/>
      <point x="843.0" y="700.0" type="line"/>
      <point x="977.6" y="700.0" type="line"/>
      <point x="753.0" y="0.0" type="line"/>
      <point x="659.0" y="0.0" type="line"/>
      <point x="488.4" y="425.8" type="line"/>
      <point x="499.2" y="422.6" type="line"/>
      <point x="333.8" y="0.0" type="line"/>
    </contour>
  </outline>
</glyph>
<glyph name="X" format="2">
  <advance width="692"/>
  <unicode hex="0058"/>
  <note>
X
</note>
  <anchor x="332.2" y="0" name="bottom"/>
  <anchor x="332.2" y="700.0" name="top"/>
  <outline>
    <contour>
      <point x="515.2" y="700.0" type="line"/>
      <point x="666.6" y="700.0" type="line"/>
      <point x="409.6" y="325.0" type="line"/>
      <point x="319.2" y="401.0" type="line"/>
    </contour>
    <contour>
      <point x="20.2" y="700.0" type="line"/>
      <point x="181.6" y="700.0" type="line"/>
      <point x="393.6" y="390.0" type="line"/>
      <point x="676.6" y="0.0" type="line"/>
      <point x="515.2" y="0.0" type="line"/>
      <point x="298.2" y="314.0" type="line"/>
    </contour>
    <contour>
      <point x="166.6" y="0.0" type="line"/>
      <point x="15.2" y="0.0" type="line"/>
      <point x="282.2" y="381.0" type="line"/>
      <point x="373.6" y="302.0" type="line"/>
    </contour>
  </outline>
</glyph>
<glyph name="Y" format="2">
  <advance width="670"/>
  <unicode hex="0059"/>
  <note>
Y
</note>
  <anchor x="329.0" y="-1.0" name="bottom"/>
  <anchor x="325.0" y="700.0" name="top"/>
  <anchor x="54.0" y="700.0" name="topleft"/>
  <outline>
    <contour>
      <point x="520.0" y="700.0" type="line"/>
      <point x="666.0" y="700.0" type="line"/>
      <point x="395.0" y="289.0" type="line"/>
      <point x="410.0" y="357.0" type="line"/>
      <point x="410.0" y="0.0" type="line"/>
      <point x="280.0" y="0.0" type="line"/>
      <point x="280.0" y="349.0" type="line"/>
      <point x="287.0" y="300.0" type="line"/>
      <point x="4.0" y="700.0" type="line"/>
      <point x="156.0" y="700.0" type="line"/>
      <point x="372.0" y="390.0" type="line"/>
      <point x="325.0" y="393.0" type="line"/>
    </contour>
  </outline>
</glyph>
<glyph name="Z" format="2">
  <advance width="667"/>
  <unicode hex="005A"/>
  <note>
Z
</note>
  <anchor x="330.0" y="0" name="bottom"/>
  <anchor x="330.0" y="700.0" name="top"/>
  <outline>
    <contour>
      <point x="86.0" y="700.0" type="line"/>
      <point x="600.4" y="700.0" type="line"/>
      <point x="600.4" y="608.0" type="line"/>
      <point x="211.4" y="87.0" type="line"/>
      <point x="180.0" y="119.6" type="line"/>
      <point x="611.4" y="119.6" type="line"/>
      <point x="611.4" y="0.0" type="line"/>
      <point x="60.0" y="0.0" type="line"/>
      <point x="60.0" y="93.0" type="line"/>
      <point x="451.0" y="613.0" type="line"/>
      <point x="481.4" y="578.0" type="line"/>
      <point x="86.0" y="578.0" type="line"/>
    </contour>
  </outline>
</glyph>
<glyph name="asciicircum" format="2">
  <advance width="579"/>
  <unicode hex="005E"/>
  <note>
asciicircum
</note>
  <outline>
    <contour>
      <point x="142.0" y="368.0" type="line"/>
      <point x="29.0" y="368.0" type="line"/>
      <point x="240.0" y="727.0" type="line"/>
      <point x="340.0" y="727.0" type="line"/>
      <point x="551.0" y="368.0" type="line"/>
      <point x="436.0" y="368.0" type="line"/>
      <point x="281.0" y="633.0" type="line"/>
      <point x="301.0" y="636.0" type="line"/>
    </contour>
  </outline>
</glyph>
<glyph name="underscore" format="2">
  <advance width="690"/>
  <unicode hex="005F"/>
  <note>
underscore
</note>
  <outline>
    <contour>
      <point x="637.0" y="-160.0" type="line"/>
      <point x="53.0" y="-160.0" type="line"/>
      <point x="53.0" y="-82.0" type="line"/>
      <point x="637.0" y="-82.0" type="line"/>
    </contour>
  </outline>
</glyph>
<glyph name="c" format="2">
  <advance width="535"/>
  <unicode hex="0063"/>
  <note>
c
</note>
  <anchor x="259.0" y="0" name="bottom"/>
  <anchor x="299.0" y="530.0" name="top"/>
  <outline>
    <contour>
      <point x="305.0" y="443.0" type="qcurve" smooth="yes"/>
      <point x="233.0" y="443.0"/>
      <point x="138.0" y="340.0"/>
      <point x="138.0" y="263.0" type="qcurve" smooth="yes"/>
      <point x="138.0" y="187.0"/>
      <point x="237.0" y="83.0"/>
      <point x="306.0" y="83.0" type="qcurve"/>
      <point x="346.0" y="83.0"/>
      <point x="421.0" y="124.0"/>
      <point x="453.0" y="163.0" type="qcurve"/>
      <point x="510.0" y="93.0" type="line"/>
      <point x="478.0" y="48.0"/>
      <point x="359.0" y="-10.0"/>
      <point x="295.0" y="-10.0" type="qcurve"/>
      <point x="186.0" y="-10.0"/>
      <point x="40.0" y="147.0"/>
      <point x="40.0" y="263.0" type="qcurve" smooth="yes"/>
      <point x="40.0" y="379.0"/>
      <point x="186.0" y="536.0"/>
      <point x="295.0" y="536.0" type="qcurve"/>
      <point x="365.0" y="536.0"/>
      <point x="480.0" y="479.0"/>
      <point x="510.0" y="430.0" type="qcurve"/>
      <point x="453.0" y="360.0" type="line"/>
      <point x="429.0" y="395.0"/>
      <point x="344.0" y="443.0"/>
    </contour>
  </outline>
</glyph>
<glyph name="n" format="2">
  <advance width="609"/>
  <unicode hex="006E"/>
  <note>
n
</note>
  <anchor x="308.6" y="0" name="bottom"/>
  <anchor x="308.6" y="510.0" name="top"/>
  <outline>
    <contour>
      <point x="361.2" y="538.0" type="qcurve"/>
      <point x="451.2" y="538.0"/>
      <point x="542.6" y="430.0"/>
      <point x="542.6" y="322.0" type="qcurve"/>
      <point x="542.6" y="0.0" type="line"/>
      <point x="419.6" y="0.0" type="line"/>
      <point x="419.6" y="313.0" type="line"/>
      <point x="419.6" y="374.0"/>
      <point x="369.2" y="432.2"/>
      <point x="318.6" y="429.8" type="qcurve"/>
      <point x="265.4" y="429.8"/>
      <point x="194.6" y="365.0"/>
      <point x="194.6" y="318.0" type="qcurve"/>
      <point x="194.6" y="0.0" type="line"/>
      <point x="168.6" y="0.0"/>
      <point x="97.6" y="0.0"/>
      <point x="71.6" y="0.0" type="qcurve"/>
      <point x="71.6" y="527.0" type="line"/>
      <point x="191.6" y="527.0" type="line"/>
      <point x="193.6" y="419.0" type="line"/>
      <point x="170.6" y="407.0" type="line"/>
      <point x="185.8" y="460.0"/>
      <point x="297.2" y="538.0"/>
    </contour>
  </outline>
</glyph>
<glyph name="o" format="2">
  <advance width="624"/>
  <unicode hex="006F"/>
  <note>
o
</note>
  <anchor x="309.0" y="0" name="bottom"/>
  <anchor x="309.0" y="256.0" name="center"/>
  <anchor x="551.0" y="10.0" name="ogonek"/>
  <anchor x="309.0" y="513.0" name="top"/>
  <anchor x="323.0" y="531.0" name="topright"/>
  <outline>
    <contour>
      <point x="312.6" y="538.0" type="qcurve"/>
      <point x="429.8" y="538.0"/>
      <point x="586.0" y="382.6"/>
      <point x="586.0" y="264.0" type="qcurve"/>
      <point x="586.0" y="145.4"/>
      <point x="429.8" y="-10.0"/>
      <point x="312.6" y="-10.0" type="qcurve"/>
      <point x="194.4" y="-10.0"/>
      <point x="38.0" y="145.4"/>
      <point x="38.0" y="264.0" type="qcurve"/>
      <point x="38.0" y="382.6"/>
      <point x="194.4" y="538.0"/>
    </contour>
    <contour>
      <point x="312.6" y="99.2" type="qcurve"/>
      <point x="377.6" y="99.2"/>
      <point x="461.8" y="193.0"/>
      <point x="461.0" y="264.0" type="qcurve"/>
      <point x="461.8" y="336.0"/>
      <point x="377.6" y="429.0"/>
      <point x="312.6" y="429.0" type="qcurve"/>
      <point x="247.4" y="429.0"/>
      <point x="162.2" y="335.2"/>
      <point x="163.0" y="264.0" type="qcurve"/>
      <point x="162.2" y="193.0"/>
      <point x="247.4" y="99.2"/>
    </contour>
  </outline>
</glyph>
<glyph name="p" format="2">
  <advance width="641"/>
  <unicode hex="0070"/>
  <note>
p
</note>
  <anchor x="322.6" y="0" name="bottom"/>
  <anchor x="322.6" y="510.0" name="top"/>
  <outline>
    <contour>
      <point x="361.0" y="536.4" type="qcurve"/>
      <point x="465.6" y="536.4"/>
      <point x="602.6" y="383.0"/>
      <point x="602.6" y="264.0" type="qcurve"/>
      <point x="602.6" y="146.2"/>
      <point x="466.0" y="-9.0"/>
      <point x="362.4" y="-9.0" type="qcurve"/>
      <point x="293.6" y="-9.0"/>
      <point x="177.2" y="69.2"/>
      <point x="165.8" y="117.0" type="qcurve"/>
      <point x="195.6" y="131.0" type="line"/>
      <point x="195.6" y="-220.0" type="line"/>
      <point x="71.6" y="-220.0" type="line"/>
      <point x="71.6" y="527.8" type="line"/>
      <point x="192.4" y="527.8" type="line"/>
      <point x="194.6" y="407.4" type="line"/>
      <point x="173.6" y="416.4" type="line"/>
      <point x="182.8" y="462.8"/>
      <point x="295.0" y="536.4"/>
    </contour>
    <contour>
      <point x="483.6" y="264.0" type="qcurve"/>
      <point x="483.6" y="335.6"/>
      <point x="402.2" y="427.4"/>
      <point x="337.6" y="427.4" type="qcurve"/>
      <point x="272.8" y="427.4"/>
      <point x="190.6" y="336.4"/>
      <point x="190.6" y="264.0" type="qcurve"/>
      <point x="190.6" y="192.4"/>
      <point x="272.8" y="100.0"/>
      <point x="337.6" y="100.0" type="qcurve"/>
      <point x="401.4" y="100.0"/>
      <point x="483.6" y="192.4"/>
    </contour>
  </outline>
</glyph>
<glyph name="s" format="2">
  <advance width="479"/>
  <unicode hex="0073"/>
  <note>
s
</note>
  <anchor x="238.0" y="0" name="bottom"/>
  <anchor x="238.0" y="530.0" name="top"/>
  <outline>
    <contour>
      <point x="434.0" y="452.0" type="qcurve"/>
      <point x="375.0" y="387.0" type="line"/>
      <point x="346.0" y="416.0"/>
      <point x="275.0" y="451.0"/>
      <point x="246.0" y="451.0" type="qcurve"/>
      <point x="203.0" y="451.0"/>
      <point x="156.0" y="419.0"/>
      <point x="156.0" y="388.0" type="qcurve"/>
      <point x="157.0" y="361.0"/>
      <point x="199.0" y="327.0"/>
      <point x="267.0" y="310.0" type="qcurve"/>
      <point x="366.0" y="284.0"/>
      <point x="437.0" y="208.0"/>
      <point x="437.0" y="146.0" type="qcurve"/>
      <point x="437.0" y="78.0"/>
      <point x="326.0" y="-10.0"/>
      <point x="247.0" y="-10.0" type="qcurve"/>
      <point x="181.0" y="-10.0"/>
      <point x="75.0" y="36.0"/>
      <point x="40.0" y="81.0" type="qcurve"/>
      <point x="110.0" y="141.0" type="line"/>
      <point x="140.0" y="106.0"/>
      <point x="211.0" y="75.0"/>
      <point x="256.0" y="75.0" type="qcurve"/>
      <point x="293.0" y="75.0"/>
      <point x="340.0" y="111.0"/>
      <point x="340.0" y="142.0" type="qcurve"/>
      <point x="340.0" y="168.0"/>
      <point x="302.0" y="199.0"/>
      <point x="234.0" y="217.0" type="qcurve"/>
      <point x="132.0" y="244.0"/>
      <point x="53.0" y="323.0"/>
      <point x="53.0" y="385.0" type="qcurve"/>
      <point x="53.0" y="451.0"/>
      <point x="162.0" y="536.0"/>
      <point x="241.0" y="536.0" type="qcurve"/>
      <point x="297.0" y="536.0"/>
      <point x="402.0" y="491.0"/>
    </contour>
  </outline>
</glyph>
<glyph name="z" format="2">
  <advance width="484"/>
  <unicode hex="007A"/>
  <note>
z
</note>
  <anchor x="240.0" y="0" name="bottom"/>
  <anchor x="248.0" y="510.0" name="top"/>
  <outline>
    <contour>
      <point x="162.0" y="89.0" type="line"/>
      <point x="439.0" y="89.0" type="line"/>
      <point x="439.0" y="0.0" type="line"/>
      <point x="50.0" y="0.0" type="line"/>
      <point x="50.0" y="86.0" type="line"/>
      <point x="321.0" y="448.0" type="line"/>
      <point x="321.0" y="436.0" type="line"/>
      <point x="50.0" y="436.0" type="line"/>
      <point x="50.0" y="525.0" type="line"/>
      <point x="433.0" y="525.0" type="line"/>
      <point x="433.0" y="441.0" type="line"/>
      <point x="166.0" y="84.0" type="line"/>
    </contour>
  </outline>
</glyph>
<glyph name="hah-ar.fina" format="2">
  <advance width="725"/>
  <unicode hex="FEA2"/>
  <anchor x="419.0" y="-456.0" name="bottom"/>
  <anchor x="420.0" y="-124.0" name="center"/>
  <anchor x="305.0" y="421.0" name="top"/>
  <outline>
    <contour>
      <point x="477.0" y="133.0" type="qcurve"/>
      <point x="547.0" y="167.0" type="line"/>
      <point x="563.0" y="131.0"/>
      <point x="629.0" y="102.0"/>
      <point x="692.0" y="102.0" type="qcurve"/>
      <point x="725.0" y="102.0" type="line"/>
      <point x="725.0" y="0.0" type="line"/>
      <point x="689.0" y="0.0" type="line" smooth="yes"/>
      <point x="598.0" y="0.0"/>
      <point x="498.0" y="63.0"/>
    </contour>
    <component base="hah-ar"/>
  </outline>
</glyph>
<glyph name="ain-ar.init" format="2">
  <advance width="543"/>
  <unicode hex="FECB"/>
  <anchor x="267.0" y="0" name="bottom"/>
  <anchor x="307.0" y="438.0" name="top"/>
  <outline>
    <contour>
      <point x="483.0" y="0.0" type="line"/>
      <point x="0.0" y="0.0" type="line"/>
      <point x="0.0" y="102.0" type="line"/>
      <point x="483.0" y="102.0" type="line"/>
      <point x="483.0" y="0.0" type="line"/>
      <point x="291.0" y="0.0"/>
      <point x="82.0" y="123.0"/>
      <point x="82.0" y="236.0" type="qcurve" smooth="yes"/>
      <point x="82.0" y="325.0"/>
      <point x="208.0" y="438.0"/>
      <point x="307.0" y="438.0" type="qcurve" smooth="yes"/>
      <point x="360.0" y="438.0"/>
      <point x="461.0" y="407.0"/>
      <point x="500.0" y="378.0" type="qcurve"/>
      <point x="491.0" y="430.0" type="line"/>
      <point x="405.0" y="267.0" type="line"/>
      <point x="454.0" y="295.0" type="line"/>
      <point x="420.0" y="316.0"/>
      <point x="348.0" y="336.0"/>
      <point x="307.0" y="336.0" type="qcurve" smooth="yes"/>
      <point x="252.0" y="336.0"/>
      <point x="186.0" y="282.0"/>
      <point x="186.0" y="236.0" type="qcurve" smooth="yes"/>
      <point x="186.0" y="174.0"/>
      <point x="293.0" y="102.0"/>
      <point x="389.0" y="102.0" type="qcurve"/>
      <point x="483.0" y="102.0" type="line"/>
    </contour>
  </outline>
</glyph>
<glyph name="eight.dnom" format="2">
  <advance width="353"/>
  <outline>
    <contour>
      <point x="309.0" y="97.0" type="qcurve"/>
      <point x="309.0" y="53.0"/>
      <point x="231.0" y="-11.0"/>
      <point x="177.0" y="-11.0" type="qcurve"/>
      <point x="122.0" y="-11.0"/>
      <point x="44.0" y="53.0"/>
      <point x="44.0" y="97.0" type="qcurve"/>
      <point x="44.0" y="125.0"/>
      <point x="83.0" y="172.0"/>
      <point x="120.0" y="188.0" type="qcurve"/>
      <point x="117.0" y="177.0" type="line"/>
      <point x="88.0" y="187.0"/>
      <point x="54.0" y="228.0"/>
      <point x="54.0" y="255.0" type="qcurve"/>
      <point x="54.0" y="298.0"/>
      <point x="125.0" y="358.0"/>
      <point x="177.0" y="358.0" type="qcurve"/>
      <point x="228.0" y="358.0"/>
      <point x="300.0" y="298.0"/>
      <point x="300.0" y="255.0" type="qcurve"/>
      <point x="300.0" y="230.0"/>
      <point x="267.0" y="189.0"/>
      <point x="237.0" y="177.0" type="qcurve"/>
      <point x="236.0" y="188.0" type="line"/>
      <point x="269.0" y="174.0"/>
      <point x="309.0" y="125.0"/>
    </contour>
    <contour>
      <point x="129.0" y="253.0" type="qcurve"/>
      <point x="129.0" y="236.0"/>
      <point x="157.0" y="213.0"/>
      <point x="177.0" y="213.0" type="qcurve"/>
      <point x="197.0" y="213.0"/>
      <point x="225.0" y="236.0"/>
      <point x="225.0" y="253.0" type="qcurve"/>
      <point x="225.0" y="270.0"/>
      <point x="197.0" y="294.0"/>
      <point x="177.0" y="294.0" type="qcurve"/>
      <point x="156.0" y="294.0"/>
      <point x="129.0" y="271.0"/>
    </contour>
    <contour>
      <point x="121.0" y="104.0" type="qcurve"/>
      <point x="121.0" y="82.0"/>
      <point x="154.0" y="52.0"/>
      <point x="177.0" y="52.0" type="qcurve"/>
      <point x="200.0" y="52.0"/>
      <point x="233.0" y="82.0"/>
      <point x="233.0" y="104.0" type="qcurve"/>
      <point x="233.0" y="124.0"/>
      <point x="200.0" y="151.0"/>
      <point x="177.0" y="151.0" type="qcurve"/>
      <point x="153.0" y="151.0"/>
      <point x="121.0" y="124.0"/>
    </contour>
  </outline>
</glyph>
<glyph name="horncomb.case" format="2">
  <anchor x="0" y="510.0" name="_topright"/>
  <anchor x="0" y="510.0" name="topright"/>
  <outline>
    <contour>
      <point x="74.0" y="420.0" type="qcurve"/>
      <point x="74.0" y="502.0" type="line"/>
      <point x="119.0" y="502.0"/>
      <point x="163.0" y="559.0"/>
      <point x="163.0" y="616.0" type="qcurve"/>
      <point x="255.0" y="616.0" type="line"/>
      <point x="255.0" y="525.0"/>
      <point x="160.0" y="420.0"/>
    </contour>
  </outline>
</glyph>
